<mxfile host="app.diagrams.net" modified="2021-12-14T04:05:17.616Z" agent="5.0 (Windows NT 10.0; Win64; x64) AppleWebKit/537.36 (KHTML, like Gecko) Chrome/96.0.4664.93 Safari/537.36" etag="mrL6MFpV66UAY2N6a_R3" version="15.9.5" type="github">
  <diagram id="R2lEEEUBdFMjLlhIrx00" name="Page-1">
    <mxGraphModel dx="1909" dy="2106" grid="1" gridSize="10" guides="1" tooltips="1" connect="1" arrows="1" fold="1" page="1" pageScale="1" pageWidth="850" pageHeight="1100" math="0" shadow="0" extFonts="Permanent Marker^https://fonts.googleapis.com/css?family=Permanent+Marker">
      <root>
        <mxCell id="0" />
        <mxCell id="1" parent="0" />
        <mxCell id="1Zi6ryn8sn-CF4CWFkzp-1" value="Written_by" style="rhombus;whiteSpace=wrap;html=1;" parent="1" vertex="1">
          <mxGeometry x="220" y="330" width="100" height="70" as="geometry" />
        </mxCell>
        <mxCell id="1Zi6ryn8sn-CF4CWFkzp-2" value="Book" style="rounded=0;whiteSpace=wrap;html=1;" parent="1" vertex="1">
          <mxGeometry x="210" y="206" width="120" height="60" as="geometry" />
        </mxCell>
        <mxCell id="1Zi6ryn8sn-CF4CWFkzp-3" value="&lt;u&gt;ISBN&lt;/u&gt;" style="ellipse;whiteSpace=wrap;html=1;" parent="1" vertex="1">
          <mxGeometry x="305" y="-228" width="120" height="80" as="geometry" />
        </mxCell>
        <mxCell id="1Zi6ryn8sn-CF4CWFkzp-4" value="" style="endArrow=none;html=1;rounded=0;exitX=0.5;exitY=0;exitDx=0;exitDy=0;entryX=0.5;entryY=1;entryDx=0;entryDy=0;" parent="1" source="1Zi6ryn8sn-CF4CWFkzp-2" target="1Zi6ryn8sn-CF4CWFkzp-3" edge="1">
          <mxGeometry width="50" height="50" relative="1" as="geometry">
            <mxPoint x="380" y="196" as="sourcePoint" />
            <mxPoint x="430" y="146" as="targetPoint" />
          </mxGeometry>
        </mxCell>
        <mxCell id="1Zi6ryn8sn-CF4CWFkzp-5" value="" style="endArrow=none;html=1;rounded=0;exitX=0.5;exitY=0;exitDx=0;exitDy=0;entryX=0.5;entryY=1;entryDx=0;entryDy=0;strokeColor=default;shape=link;" parent="1" source="1Zi6ryn8sn-CF4CWFkzp-1" target="1Zi6ryn8sn-CF4CWFkzp-2" edge="1">
          <mxGeometry width="50" height="50" relative="1" as="geometry">
            <mxPoint x="260" y="346" as="sourcePoint" />
            <mxPoint x="260" y="265.99999999999994" as="targetPoint" />
          </mxGeometry>
        </mxCell>
        <mxCell id="1Zi6ryn8sn-CF4CWFkzp-6" value="" style="endArrow=none;html=1;rounded=0;exitX=0;exitY=0.5;exitDx=0;exitDy=0;shape=link;entryX=1;entryY=0.5;entryDx=0;entryDy=0;" parent="1" source="1Zi6ryn8sn-CF4CWFkzp-7" target="1Zi6ryn8sn-CF4CWFkzp-1" edge="1">
          <mxGeometry width="50" height="50" relative="1" as="geometry">
            <mxPoint x="285" y="430" as="sourcePoint" />
            <mxPoint x="350" y="430" as="targetPoint" />
          </mxGeometry>
        </mxCell>
        <mxCell id="1Zi6ryn8sn-CF4CWFkzp-7" value="Author" style="rounded=0;whiteSpace=wrap;html=1;" parent="1" vertex="1">
          <mxGeometry x="387.5" y="335" width="120" height="60" as="geometry" />
        </mxCell>
        <mxCell id="1Zi6ryn8sn-CF4CWFkzp-8" value="Name" style="ellipse;whiteSpace=wrap;html=1;" parent="1" vertex="1">
          <mxGeometry x="365" y="-148" width="120" height="80" as="geometry" />
        </mxCell>
        <mxCell id="1Zi6ryn8sn-CF4CWFkzp-9" value="" style="endArrow=none;html=1;rounded=0;exitX=0.5;exitY=0;exitDx=0;exitDy=0;entryX=0.5;entryY=1;entryDx=0;entryDy=0;" parent="1" source="1Zi6ryn8sn-CF4CWFkzp-2" target="1Zi6ryn8sn-CF4CWFkzp-8" edge="1">
          <mxGeometry width="50" height="50" relative="1" as="geometry">
            <mxPoint x="460" y="206" as="sourcePoint" />
            <mxPoint x="560" y="146" as="targetPoint" />
          </mxGeometry>
        </mxCell>
        <mxCell id="1Zi6ryn8sn-CF4CWFkzp-10" value="Price" style="ellipse;whiteSpace=wrap;html=1;" parent="1" vertex="1">
          <mxGeometry x="220" y="-148" width="120" height="80" as="geometry" />
        </mxCell>
        <mxCell id="1Zi6ryn8sn-CF4CWFkzp-11" value="" style="endArrow=none;html=1;rounded=0;exitX=0.5;exitY=0;exitDx=0;exitDy=0;entryX=0.5;entryY=1;entryDx=0;entryDy=0;" parent="1" source="1Zi6ryn8sn-CF4CWFkzp-2" target="1Zi6ryn8sn-CF4CWFkzp-10" edge="1">
          <mxGeometry width="50" height="50" relative="1" as="geometry">
            <mxPoint x="200" y="206" as="sourcePoint" />
            <mxPoint x="300" y="146" as="targetPoint" />
          </mxGeometry>
        </mxCell>
        <mxCell id="1Zi6ryn8sn-CF4CWFkzp-12" value="Genre" style="ellipse;whiteSpace=wrap;html=1;" parent="1" vertex="1">
          <mxGeometry x="95" y="-160" width="120" height="80" as="geometry" />
        </mxCell>
        <mxCell id="1Zi6ryn8sn-CF4CWFkzp-13" value="" style="endArrow=none;html=1;rounded=0;exitX=0.5;exitY=0;exitDx=0;exitDy=0;entryX=1;entryY=1;entryDx=0;entryDy=0;" parent="1" source="1Zi6ryn8sn-CF4CWFkzp-2" target="1Zi6ryn8sn-CF4CWFkzp-12" edge="1">
          <mxGeometry width="50" height="50" relative="1" as="geometry">
            <mxPoint x="250" y="276" as="sourcePoint" />
            <mxPoint x="220" y="216" as="targetPoint" />
          </mxGeometry>
        </mxCell>
        <mxCell id="1Zi6ryn8sn-CF4CWFkzp-14" value="Number of pages" style="ellipse;whiteSpace=wrap;html=1;" parent="1" vertex="1">
          <mxGeometry x="415" y="-68" width="120" height="80" as="geometry" />
        </mxCell>
        <mxCell id="1Zi6ryn8sn-CF4CWFkzp-15" value="" style="endArrow=none;html=1;rounded=0;exitX=0.5;exitY=0;exitDx=0;exitDy=0;entryX=0;entryY=1;entryDx=0;entryDy=0;" parent="1" source="1Zi6ryn8sn-CF4CWFkzp-2" target="1Zi6ryn8sn-CF4CWFkzp-14" edge="1">
          <mxGeometry width="50" height="50" relative="1" as="geometry">
            <mxPoint x="615" y="266" as="sourcePoint" />
            <mxPoint x="585" y="206" as="targetPoint" />
            <Array as="points" />
          </mxGeometry>
        </mxCell>
        <mxCell id="1Zi6ryn8sn-CF4CWFkzp-16" value="Published_by" style="rhombus;whiteSpace=wrap;html=1;" parent="1" vertex="1">
          <mxGeometry x="405" y="201.5" width="100" height="70" as="geometry" />
        </mxCell>
        <mxCell id="1Zi6ryn8sn-CF4CWFkzp-17" value="" style="endArrow=none;html=1;rounded=0;entryX=1;entryY=0.5;entryDx=0;entryDy=0;exitX=0;exitY=0.5;exitDx=0;exitDy=0;" parent="1" source="1Zi6ryn8sn-CF4CWFkzp-18" target="1Zi6ryn8sn-CF4CWFkzp-16" edge="1">
          <mxGeometry width="50" height="50" relative="1" as="geometry">
            <mxPoint x="427" y="340.5" as="sourcePoint" />
            <mxPoint x="426.76" y="290.5" as="targetPoint" />
          </mxGeometry>
        </mxCell>
        <mxCell id="1Zi6ryn8sn-CF4CWFkzp-18" value="Publisher" style="rounded=0;whiteSpace=wrap;html=1;" parent="1" vertex="1">
          <mxGeometry x="615" y="206.5" width="120" height="60" as="geometry" />
        </mxCell>
        <mxCell id="1Zi6ryn8sn-CF4CWFkzp-19" value="" style="endArrow=none;html=1;rounded=0;entryX=1;entryY=0.5;entryDx=0;entryDy=0;exitX=0;exitY=0.5;exitDx=0;exitDy=0;shape=link;" parent="1" source="1Zi6ryn8sn-CF4CWFkzp-16" target="1Zi6ryn8sn-CF4CWFkzp-2" edge="1">
          <mxGeometry width="50" height="50" relative="1" as="geometry">
            <mxPoint x="482" y="260" as="sourcePoint" />
            <mxPoint x="414" y="260" as="targetPoint" />
          </mxGeometry>
        </mxCell>
        <mxCell id="1Zi6ryn8sn-CF4CWFkzp-20" value="&lt;u&gt;Name&lt;/u&gt;" style="ellipse;whiteSpace=wrap;html=1;" parent="1" vertex="1">
          <mxGeometry x="615" y="60.5" width="120" height="80" as="geometry" />
        </mxCell>
        <mxCell id="1Zi6ryn8sn-CF4CWFkzp-21" value="" style="endArrow=none;html=1;rounded=0;entryX=0.5;entryY=1;entryDx=0;entryDy=0;exitX=0.5;exitY=0;exitDx=0;exitDy=0;" parent="1" source="1Zi6ryn8sn-CF4CWFkzp-18" target="1Zi6ryn8sn-CF4CWFkzp-20" edge="1">
          <mxGeometry width="50" height="50" relative="1" as="geometry">
            <mxPoint x="585" y="180.5" as="sourcePoint" />
            <mxPoint x="735" y="127.34" as="targetPoint" />
          </mxGeometry>
        </mxCell>
        <mxCell id="1Zi6ryn8sn-CF4CWFkzp-22" value="Address" style="ellipse;whiteSpace=wrap;html=1;" parent="1" vertex="1">
          <mxGeometry x="520" y="-9.5" width="120" height="80" as="geometry" />
        </mxCell>
        <mxCell id="1Zi6ryn8sn-CF4CWFkzp-23" value="" style="endArrow=none;html=1;rounded=0;exitX=0.5;exitY=0;exitDx=0;exitDy=0;entryX=0.5;entryY=1;entryDx=0;entryDy=0;" parent="1" source="1Zi6ryn8sn-CF4CWFkzp-18" target="1Zi6ryn8sn-CF4CWFkzp-22" edge="1">
          <mxGeometry width="50" height="50" relative="1" as="geometry">
            <mxPoint x="684.9999999999998" y="176.5" as="sourcePoint" />
            <mxPoint x="865" y="127.34" as="targetPoint" />
          </mxGeometry>
        </mxCell>
        <mxCell id="1Zi6ryn8sn-CF4CWFkzp-24" value="Phone Number" style="ellipse;whiteSpace=wrap;html=1;" parent="1" vertex="1">
          <mxGeometry x="710" y="-9.5" width="120" height="80" as="geometry" />
        </mxCell>
        <mxCell id="1Zi6ryn8sn-CF4CWFkzp-25" value="" style="endArrow=none;html=1;rounded=0;entryX=0.5;entryY=1;entryDx=0;entryDy=0;exitX=0.5;exitY=0;exitDx=0;exitDy=0;" parent="1" source="1Zi6ryn8sn-CF4CWFkzp-18" target="1Zi6ryn8sn-CF4CWFkzp-24" edge="1">
          <mxGeometry width="50" height="50" relative="1" as="geometry">
            <mxPoint x="645" y="150.5" as="sourcePoint" />
            <mxPoint x="905" y="187.34" as="targetPoint" />
          </mxGeometry>
        </mxCell>
        <mxCell id="1Zi6ryn8sn-CF4CWFkzp-26" value="Email address" style="ellipse;whiteSpace=wrap;html=1;" parent="1" vertex="1">
          <mxGeometry x="475" y="70.50000000000001" width="120" height="80" as="geometry" />
        </mxCell>
        <mxCell id="1Zi6ryn8sn-CF4CWFkzp-27" value="" style="endArrow=none;html=1;rounded=0;exitX=0.5;exitY=0;exitDx=0;exitDy=0;entryX=1;entryY=1;entryDx=0;entryDy=0;" parent="1" source="1Zi6ryn8sn-CF4CWFkzp-18" target="1Zi6ryn8sn-CF4CWFkzp-26" edge="1">
          <mxGeometry width="50" height="50" relative="1" as="geometry">
            <mxPoint x="684.9999999999998" y="176.5" as="sourcePoint" />
            <mxPoint x="935" y="246.92000000000002" as="targetPoint" />
          </mxGeometry>
        </mxCell>
        <mxCell id="1Zi6ryn8sn-CF4CWFkzp-28" value="Banking Account" style="ellipse;whiteSpace=wrap;html=1;" parent="1" vertex="1">
          <mxGeometry x="755" y="70.5" width="120" height="80" as="geometry" />
        </mxCell>
        <mxCell id="1Zi6ryn8sn-CF4CWFkzp-29" value="" style="endArrow=none;html=1;rounded=0;exitX=0.5;exitY=0;exitDx=0;exitDy=0;entryX=0;entryY=1;entryDx=0;entryDy=0;" parent="1" source="1Zi6ryn8sn-CF4CWFkzp-18" target="1Zi6ryn8sn-CF4CWFkzp-28" edge="1">
          <mxGeometry width="50" height="50" relative="1" as="geometry">
            <mxPoint x="834.9999999999998" y="169.66" as="sourcePoint" />
            <mxPoint x="955" y="120.5" as="targetPoint" />
          </mxGeometry>
        </mxCell>
        <mxCell id="1Zi6ryn8sn-CF4CWFkzp-30" value="N" style="text;html=1;strokeColor=none;fillColor=none;align=center;verticalAlign=middle;whiteSpace=wrap;rounded=0;" parent="1" vertex="1">
          <mxGeometry x="315" y="210" width="60" height="30" as="geometry" />
        </mxCell>
        <mxCell id="1Zi6ryn8sn-CF4CWFkzp-31" value="1" style="text;html=1;strokeColor=none;fillColor=none;align=center;verticalAlign=middle;whiteSpace=wrap;rounded=0;" parent="1" vertex="1">
          <mxGeometry x="572.5" y="210.5" width="60" height="30" as="geometry" />
        </mxCell>
        <mxCell id="1Zi6ryn8sn-CF4CWFkzp-32" value="N" style="text;html=1;strokeColor=none;fillColor=none;align=center;verticalAlign=middle;whiteSpace=wrap;rounded=0;" parent="1" vertex="1">
          <mxGeometry x="250" y="260" width="60" height="30" as="geometry" />
        </mxCell>
        <mxCell id="1Zi6ryn8sn-CF4CWFkzp-33" value="N" style="text;html=1;strokeColor=none;fillColor=none;align=center;verticalAlign=middle;whiteSpace=wrap;rounded=0;" parent="1" vertex="1">
          <mxGeometry x="347.5" y="340" width="60" height="30" as="geometry" />
        </mxCell>
        <mxCell id="1Zi6ryn8sn-CF4CWFkzp-35" value="&lt;u&gt;ID&lt;/u&gt;" style="ellipse;whiteSpace=wrap;html=1;" parent="1" vertex="1">
          <mxGeometry x="322.5" y="410" width="120" height="80" as="geometry" />
        </mxCell>
        <mxCell id="1Zi6ryn8sn-CF4CWFkzp-36" value="" style="endArrow=none;html=1;rounded=0;entryX=0.5;entryY=0;entryDx=0;entryDy=0;exitX=0.5;exitY=1;exitDx=0;exitDy=0;" parent="1" source="1Zi6ryn8sn-CF4CWFkzp-7" target="1Zi6ryn8sn-CF4CWFkzp-35" edge="1">
          <mxGeometry width="50" height="50" relative="1" as="geometry">
            <mxPoint x="757.5" y="570" as="sourcePoint" />
            <mxPoint x="977.5" y="626" as="targetPoint" />
          </mxGeometry>
        </mxCell>
        <mxCell id="1Zi6ryn8sn-CF4CWFkzp-37" value="Name" style="ellipse;whiteSpace=wrap;html=1;" parent="1" vertex="1">
          <mxGeometry x="452.5" y="410" width="120" height="80" as="geometry" />
        </mxCell>
        <mxCell id="1Zi6ryn8sn-CF4CWFkzp-38" value="" style="endArrow=none;html=1;rounded=0;entryX=0.5;entryY=0;entryDx=0;entryDy=0;exitX=0.5;exitY=1;exitDx=0;exitDy=0;" parent="1" source="1Zi6ryn8sn-CF4CWFkzp-7" target="1Zi6ryn8sn-CF4CWFkzp-37" edge="1">
          <mxGeometry width="50" height="50" relative="1" as="geometry">
            <mxPoint x="977.5" y="390" as="sourcePoint" />
            <mxPoint x="1107.5" y="626" as="targetPoint" />
          </mxGeometry>
        </mxCell>
        <mxCell id="IRVTpXnCai315gzagy_6-1" value="Quantity" style="ellipse;whiteSpace=wrap;html=1;" parent="1" vertex="1">
          <mxGeometry x="85" y="-76" width="120" height="80" as="geometry" />
        </mxCell>
        <mxCell id="IRVTpXnCai315gzagy_6-2" value="" style="endArrow=none;html=1;rounded=0;exitX=0.5;exitY=0;exitDx=0;exitDy=0;entryX=0.5;entryY=1;entryDx=0;entryDy=0;" parent="1" source="1Zi6ryn8sn-CF4CWFkzp-2" target="IRVTpXnCai315gzagy_6-1" edge="1">
          <mxGeometry width="50" height="50" relative="1" as="geometry">
            <mxPoint x="250" y="325" as="sourcePoint" />
            <mxPoint x="140" y="335" as="targetPoint" />
          </mxGeometry>
        </mxCell>
        <mxCell id="U0-3-jNjfQs8st8THaFY-1" value="Owner" style="rounded=0;whiteSpace=wrap;html=1;" vertex="1" parent="1">
          <mxGeometry x="640" y="335" width="120" height="60" as="geometry" />
        </mxCell>
        <mxCell id="U0-3-jNjfQs8st8THaFY-4" value="&lt;u&gt;Username&lt;/u&gt;" style="ellipse;whiteSpace=wrap;html=1;" vertex="1" parent="1">
          <mxGeometry x="580" y="410" width="120" height="80" as="geometry" />
        </mxCell>
        <mxCell id="U0-3-jNjfQs8st8THaFY-5" value="" style="endArrow=none;html=1;rounded=0;entryX=0.5;entryY=0;entryDx=0;entryDy=0;exitX=0.5;exitY=1;exitDx=0;exitDy=0;" edge="1" parent="1" target="U0-3-jNjfQs8st8THaFY-4" source="U0-3-jNjfQs8st8THaFY-1">
          <mxGeometry width="50" height="50" relative="1" as="geometry">
            <mxPoint x="560" y="395" as="sourcePoint" />
            <mxPoint x="820" y="631" as="targetPoint" />
          </mxGeometry>
        </mxCell>
        <mxCell id="U0-3-jNjfQs8st8THaFY-21" value="Password" style="ellipse;whiteSpace=wrap;html=1;" vertex="1" parent="1">
          <mxGeometry x="710" y="410" width="120" height="80" as="geometry" />
        </mxCell>
        <mxCell id="U0-3-jNjfQs8st8THaFY-22" value="" style="endArrow=none;html=1;rounded=0;entryX=0.5;entryY=0;entryDx=0;entryDy=0;exitX=0.5;exitY=1;exitDx=0;exitDy=0;" edge="1" parent="1" target="U0-3-jNjfQs8st8THaFY-21">
          <mxGeometry width="50" height="50" relative="1" as="geometry">
            <mxPoint x="700" y="395" as="sourcePoint" />
            <mxPoint x="830" y="801" as="targetPoint" />
          </mxGeometry>
        </mxCell>
        <mxCell id="U0-3-jNjfQs8st8THaFY-10" value="User" style="rounded=0;whiteSpace=wrap;html=1;rotation=0;" vertex="1" parent="1">
          <mxGeometry x="-202.5" y="105.5" width="120" height="60" as="geometry" />
        </mxCell>
        <mxCell id="U0-3-jNjfQs8st8THaFY-11" value="Name" style="ellipse;whiteSpace=wrap;html=1;rotation=0;" vertex="1" parent="1">
          <mxGeometry x="-10" y="7" width="120" height="80" as="geometry" />
        </mxCell>
        <mxCell id="U0-3-jNjfQs8st8THaFY-12" value="" style="endArrow=none;html=1;rounded=0;entryX=0;entryY=0.5;entryDx=0;entryDy=0;exitX=0.5;exitY=0;exitDx=0;exitDy=0;" edge="1" parent="1" source="U0-3-jNjfQs8st8THaFY-10" target="U0-3-jNjfQs8st8THaFY-11">
          <mxGeometry width="50" height="50" relative="1" as="geometry">
            <mxPoint x="-137.5" y="73" as="sourcePoint" />
            <mxPoint x="122.5" y="369" as="targetPoint" />
          </mxGeometry>
        </mxCell>
        <mxCell id="U0-3-jNjfQs8st8THaFY-13" value="&lt;u&gt;Username&lt;/u&gt;" style="ellipse;whiteSpace=wrap;html=1;rotation=0;" vertex="1" parent="1">
          <mxGeometry x="-270" y="8" width="120" height="80" as="geometry" />
        </mxCell>
        <mxCell id="U0-3-jNjfQs8st8THaFY-14" value="" style="endArrow=none;html=1;rounded=0;entryX=0.5;entryY=1;entryDx=0;entryDy=0;exitX=0.5;exitY=0;exitDx=0;exitDy=0;" edge="1" parent="1" source="U0-3-jNjfQs8st8THaFY-10" target="U0-3-jNjfQs8st8THaFY-13">
          <mxGeometry width="50" height="50" relative="1" as="geometry">
            <mxPoint x="-277.5" y="133" as="sourcePoint" />
            <mxPoint x="-212.5" y="43" as="targetPoint" />
          </mxGeometry>
        </mxCell>
        <mxCell id="U0-3-jNjfQs8st8THaFY-15" value="Phone number" style="ellipse;whiteSpace=wrap;html=1;rotation=0;" vertex="1" parent="1">
          <mxGeometry x="-210" y="-68" width="120" height="80" as="geometry" />
        </mxCell>
        <mxCell id="U0-3-jNjfQs8st8THaFY-16" value="" style="endArrow=none;html=1;rounded=0;entryX=0.5;entryY=1;entryDx=0;entryDy=0;exitX=0.5;exitY=0;exitDx=0;exitDy=0;" edge="1" parent="1" source="U0-3-jNjfQs8st8THaFY-10" target="U0-3-jNjfQs8st8THaFY-15">
          <mxGeometry width="50" height="50" relative="1" as="geometry">
            <mxPoint x="-247.5" y="223" as="sourcePoint" />
            <mxPoint x="12.5" y="459" as="targetPoint" />
          </mxGeometry>
        </mxCell>
        <mxCell id="U0-3-jNjfQs8st8THaFY-17" value="email" style="ellipse;whiteSpace=wrap;html=1;rotation=0;" vertex="1" parent="1">
          <mxGeometry x="-70" y="-68" width="120" height="80" as="geometry" />
        </mxCell>
        <mxCell id="U0-3-jNjfQs8st8THaFY-18" value="" style="endArrow=none;html=1;rounded=0;entryX=0.5;entryY=1;entryDx=0;entryDy=0;exitX=0.5;exitY=0;exitDx=0;exitDy=0;" edge="1" parent="1" source="U0-3-jNjfQs8st8THaFY-10" target="U0-3-jNjfQs8st8THaFY-17">
          <mxGeometry width="50" height="50" relative="1" as="geometry">
            <mxPoint x="-122.5" y="223" as="sourcePoint" />
            <mxPoint x="137.5" y="459" as="targetPoint" />
          </mxGeometry>
        </mxCell>
        <mxCell id="U0-3-jNjfQs8st8THaFY-19" value="Password" style="ellipse;whiteSpace=wrap;html=1;rotation=0;" vertex="1" parent="1">
          <mxGeometry x="-120" y="-148" width="120" height="80" as="geometry" />
        </mxCell>
        <mxCell id="U0-3-jNjfQs8st8THaFY-20" value="" style="endArrow=none;html=1;rounded=0;exitX=0.5;exitY=0;exitDx=0;exitDy=0;entryX=0.5;entryY=1;entryDx=0;entryDy=0;" edge="1" parent="1" target="U0-3-jNjfQs8st8THaFY-19" source="U0-3-jNjfQs8st8THaFY-10">
          <mxGeometry width="50" height="50" relative="1" as="geometry">
            <mxPoint x="-157.5" y="13" as="sourcePoint" />
            <mxPoint x="-237.5" y="-127" as="targetPoint" />
          </mxGeometry>
        </mxCell>
        <mxCell id="U0-3-jNjfQs8st8THaFY-26" value="Order" style="rounded=0;whiteSpace=wrap;html=1;rotation=0;" vertex="1" parent="1">
          <mxGeometry x="-45" y="205.5" width="120" height="60" as="geometry" />
        </mxCell>
        <mxCell id="U0-3-jNjfQs8st8THaFY-27" value="&lt;u&gt;Order_ID&lt;/u&gt;" style="ellipse;whiteSpace=wrap;html=1;rotation=0;" vertex="1" parent="1">
          <mxGeometry x="-132.5" y="302" width="120" height="80" as="geometry" />
        </mxCell>
        <mxCell id="U0-3-jNjfQs8st8THaFY-28" value="" style="endArrow=none;html=1;rounded=0;entryX=1;entryY=0.5;entryDx=0;entryDy=0;exitX=0.5;exitY=1;exitDx=0;exitDy=0;" edge="1" parent="1" target="U0-3-jNjfQs8st8THaFY-27" source="U0-3-jNjfQs8st8THaFY-26">
          <mxGeometry width="50" height="50" relative="1" as="geometry">
            <mxPoint x="-5.000000000000227" y="338" as="sourcePoint" />
            <mxPoint x="115" y="634" as="targetPoint" />
          </mxGeometry>
        </mxCell>
        <mxCell id="U0-3-jNjfQs8st8THaFY-29" value="Status&lt;span style=&quot;color: rgba(0 , 0 , 0 , 0) ; font-family: monospace ; font-size: 0px&quot;&gt;%3CmxGraphModel%3E%3Croot%3E%3CmxCell%20id%3D%220%22%2F%3E%3CmxCell%20id%3D%221%22%20parent%3D%220%22%2F%3E%3CmxCell%20id%3D%222%22%20value%3D%22%26lt%3Bu%26gt%3BUsername%26lt%3B%2Fu%26gt%3B%22%20style%3D%22ellipse%3BwhiteSpace%3Dwrap%3Bhtml%3D1%3Brotation%3D0%3B%22%20vertex%3D%221%22%20parent%3D%221%22%3E%3CmxGeometry%20x%3D%22375%22%20y%3D%22428.5%22%20width%3D%22120%22%20height%3D%2280%22%20as%3D%22geometry%22%2F%3E%3C%2FmxCell%3E%3CmxCell%20id%3D%223%22%20value%3D%22%22%20style%3D%22endArrow%3Dnone%3Bhtml%3D1%3Brounded%3D0%3BentryX%3D1%3BentryY%3D0.5%3BentryDx%3D0%3BentryDy%3D0%3BexitX%3D0.5%3BexitY%3D0%3BexitDx%3D0%3BexitDy%3D0%3B%22%20edge%3D%221%22%20target%3D%222%22%20parent%3D%221%22%3E%3CmxGeometry%20width%3D%2250%22%20height%3D%2250%22%20relative%3D%221%22%20as%3D%22geometry%22%3E%3CmxPoint%20x%3D%22564.9999999999998%22%20y%3D%22501%22%20as%3D%22sourcePoint%22%2F%3E%3CmxPoint%20x%3D%22685%22%20y%3D%22797%22%20as%3D%22targetPoint%22%2F%3E%3C%2FmxGeometry%3E%3C%2FmxCell%3E%3C%2Froot%3E%3C%2FmxGraphModel%3E&lt;/span&gt;" style="ellipse;whiteSpace=wrap;html=1;rotation=0;" vertex="1" parent="1">
          <mxGeometry x="-45" y="382" width="120" height="80" as="geometry" />
        </mxCell>
        <mxCell id="U0-3-jNjfQs8st8THaFY-30" value="" style="endArrow=none;html=1;rounded=0;entryX=0.5;entryY=0;entryDx=0;entryDy=0;exitX=0.5;exitY=1;exitDx=0;exitDy=0;" edge="1" parent="1" target="U0-3-jNjfQs8st8THaFY-29" source="U0-3-jNjfQs8st8THaFY-26">
          <mxGeometry width="50" height="50" relative="1" as="geometry">
            <mxPoint x="144.99999999999977" y="370.5" as="sourcePoint" />
            <mxPoint x="265" y="666.5" as="targetPoint" />
          </mxGeometry>
        </mxCell>
        <mxCell id="U0-3-jNjfQs8st8THaFY-31" value="Location" style="ellipse;whiteSpace=wrap;html=1;rotation=0;" vertex="1" parent="1">
          <mxGeometry x="47.5" y="302" width="120" height="80" as="geometry" />
        </mxCell>
        <mxCell id="U0-3-jNjfQs8st8THaFY-33" value="" style="endArrow=none;html=1;rounded=0;entryX=0;entryY=0.5;entryDx=0;entryDy=0;exitX=0.5;exitY=1;exitDx=0;exitDy=0;" edge="1" parent="1" source="U0-3-jNjfQs8st8THaFY-26" target="U0-3-jNjfQs8st8THaFY-31">
          <mxGeometry width="50" height="50" relative="1" as="geometry">
            <mxPoint x="24.999999999999773" y="275.5" as="sourcePoint" />
            <mxPoint x="24.999999999999773" y="308" as="targetPoint" />
            <Array as="points" />
          </mxGeometry>
        </mxCell>
        <mxCell id="U0-3-jNjfQs8st8THaFY-34" value="Receives" style="rhombus;whiteSpace=wrap;html=1;" vertex="1" parent="1">
          <mxGeometry x="-192.5" y="200.5" width="100" height="70" as="geometry" />
        </mxCell>
        <mxCell id="U0-3-jNjfQs8st8THaFY-35" value="" style="endArrow=none;html=1;rounded=0;exitX=0.5;exitY=0;exitDx=0;exitDy=0;entryX=0.5;entryY=1;entryDx=0;entryDy=0;strokeColor=default;" edge="1" parent="1" source="U0-3-jNjfQs8st8THaFY-34" target="U0-3-jNjfQs8st8THaFY-10">
          <mxGeometry width="50" height="50" relative="1" as="geometry">
            <mxPoint x="-42.5" y="135.5" as="sourcePoint" />
            <mxPoint x="852.4999999999998" y="663.5" as="targetPoint" />
          </mxGeometry>
        </mxCell>
        <mxCell id="U0-3-jNjfQs8st8THaFY-36" value="" style="endArrow=none;html=1;rounded=0;exitX=0;exitY=0.5;exitDx=0;exitDy=0;entryX=1;entryY=0.5;entryDx=0;entryDy=0;strokeColor=default;shape=link;" edge="1" parent="1" source="U0-3-jNjfQs8st8THaFY-26" target="U0-3-jNjfQs8st8THaFY-34">
          <mxGeometry width="50" height="50" relative="1" as="geometry">
            <mxPoint x="-37.5" y="212" as="sourcePoint" />
            <mxPoint x="-82.5" y="213" as="targetPoint" />
          </mxGeometry>
        </mxCell>
        <mxCell id="U0-3-jNjfQs8st8THaFY-37" value="N" style="text;html=1;strokeColor=none;fillColor=none;align=center;verticalAlign=middle;whiteSpace=wrap;rounded=0;" vertex="1" parent="1">
          <mxGeometry x="-82.5" y="211" width="60" height="30" as="geometry" />
        </mxCell>
        <mxCell id="U0-3-jNjfQs8st8THaFY-38" value="1" style="text;html=1;strokeColor=none;fillColor=none;align=center;verticalAlign=middle;whiteSpace=wrap;rounded=0;" vertex="1" parent="1">
          <mxGeometry x="-167" y="160" width="60" height="30" as="geometry" />
        </mxCell>
        <mxCell id="U0-3-jNjfQs8st8THaFY-39" value="Order_contains" style="rhombus;whiteSpace=wrap;html=1;" vertex="1" parent="1">
          <mxGeometry x="95" y="201" width="100" height="70" as="geometry" />
        </mxCell>
        <mxCell id="U0-3-jNjfQs8st8THaFY-40" value="" style="endArrow=none;html=1;rounded=0;shape=link;entryX=1;entryY=0.5;entryDx=0;entryDy=0;exitX=0;exitY=0.5;exitDx=0;exitDy=0;" edge="1" parent="1" source="U0-3-jNjfQs8st8THaFY-39" target="U0-3-jNjfQs8st8THaFY-26">
          <mxGeometry width="50" height="50" relative="1" as="geometry">
            <mxPoint x="95" y="190" as="sourcePoint" />
            <mxPoint x="95" y="189" as="targetPoint" />
          </mxGeometry>
        </mxCell>
        <mxCell id="U0-3-jNjfQs8st8THaFY-41" value="" style="endArrow=none;html=1;rounded=0;exitX=0;exitY=0.5;exitDx=0;exitDy=0;entryX=1;entryY=0.5;entryDx=0;entryDy=0;" edge="1" parent="1" source="1Zi6ryn8sn-CF4CWFkzp-2" target="U0-3-jNjfQs8st8THaFY-39">
          <mxGeometry width="50" height="50" relative="1" as="geometry">
            <mxPoint x="200" y="201" as="sourcePoint" />
            <mxPoint x="180" y="201.5" as="targetPoint" />
          </mxGeometry>
        </mxCell>
        <mxCell id="U0-3-jNjfQs8st8THaFY-42" value="N" style="text;html=1;strokeColor=none;fillColor=none;align=center;verticalAlign=middle;whiteSpace=wrap;rounded=0;" vertex="1" parent="1">
          <mxGeometry x="173" y="213" width="60" height="30" as="geometry" />
        </mxCell>
        <mxCell id="U0-3-jNjfQs8st8THaFY-43" value="N" style="text;html=1;strokeColor=none;fillColor=none;align=center;verticalAlign=middle;whiteSpace=wrap;rounded=0;" vertex="1" parent="1">
          <mxGeometry x="51" y="212" width="60" height="30" as="geometry" />
        </mxCell>
      </root>
    </mxGraphModel>
  </diagram>
</mxfile>
